<svg width="232" height="48" viewBox="0 0 232 48" fill="none" xmlns="http://www.w3.org/2000/svg">
<mask id="path-1-inside-1_811_35355" fill="white">
<path fill-rule="evenodd" clip-rule="evenodd" d="M232 0V29.8571L215.35 48H0V25H12V23H0V0H232Z"/>
</mask>
<path fill-rule="evenodd" clip-rule="evenodd" d="M232 0V29.8571L215.35 48H0V25H12V23H0V0H232Z" fill="black" fill-opacity="0.6"/>
<path d="M232 29.8571L232.737 30.5333L233 30.2465V29.8571H232ZM232 0H233V-1H232V0ZM215.35 48V49H215.79L216.087 48.6761L215.35 48ZM0 48H-1V49H0V48ZM0 25V24H-1V25H0ZM12 25V26H13V25H12ZM12 23H13V22H12V23ZM0 23H-1V24H0V23ZM0 0V-1H-1V0H0ZM233 29.8571V0H231V29.8571H233ZM216.087 48.6761L232.737 30.5333L231.263 29.181L214.613 47.3239L216.087 48.6761ZM0 49H215.35V47H0V49ZM-1 25V48H1V25H-1ZM12 24H0V26H12V24ZM11 23V25H13V23H11ZM0 24H12V22H0V24ZM-1 0V23H1V0H-1ZM232 -1H0V1H232V-1Z" fill="#FCEE0A" mask="url(#path-1-inside-1_811_35355)"/>
</svg>
