<svg width="252" height="48" viewBox="0 0 252 48" fill="none" xmlns="http://www.w3.org/2000/svg">
<mask id="path-1-inside-1_2815_148894" fill="white">
<path fill-rule="evenodd" clip-rule="evenodd" d="M0 48V18.1429L16.65 0H252V23H240V25H252V48H0Z"/>
</mask>
<path fill-rule="evenodd" clip-rule="evenodd" d="M0 48V18.1429L16.65 0H252V23H240V25H252V48H0Z" fill="black" fill-opacity="0.6"/>
<path d="M0 18.1429L-0.736771 17.4667L-1 17.7535V18.1429H0ZM0 48H-1V49H0V48ZM16.65 0V-1H16.2104L15.9132 -0.676144L16.65 0ZM252 0H253V-1H252V0ZM252 23V24H253V23H252ZM240 23V22H239V23H240ZM240 25H239V26H240V25ZM252 25H253V24H252V25ZM252 48V49H253V48H252ZM-1 18.1429V48H1V18.1429H-1ZM15.9132 -0.676144L-0.736771 17.4667L0.736771 18.819L17.3868 0.676144L15.9132 -0.676144ZM252 -1H16.65V1H252V-1ZM253 23V0H251V23H253ZM240 24H252V22H240V24ZM241 25V23H239V25H241ZM252 24H240V26H252V24ZM253 48V25H251V48H253ZM0 49H252V47H0V49Z" fill="#FCEE0A" mask="url(#path-1-inside-1_2815_148894)"/>
</svg>
